<svg width="56" height="56" viewBox="0 0 56 56" fill="none" xmlns="http://www.w3.org/2000/svg">
<path d="M17.6318 34.0996C15.2318 34.0996 13.1932 33.2655 11.5159 31.5973C9.83864 29.929 9 27.9014 9 25.5143C9 23.3985 9.68182 21.5404 11.0455 19.94C12.4091 18.3396 14.1409 17.3766 16.2409 17.0511C16.7864 14.4199 18.0682 12.2702 20.0864 10.602C22.1045 8.93373 24.4364 8.09961 27.0818 8.09961C30.1364 8.09961 32.7136 9.20498 34.8136 11.4157C36.9136 13.6265 37.9636 16.278 37.9636 19.3703V20.3469C39.9273 20.2926 41.5909 20.9233 42.9545 22.2389C44.3182 23.5545 45 25.2159 45 27.2232C45 29.0949 44.3182 30.7089 42.9545 32.0652C41.5909 33.4215 39.9682 34.0996 38.0864 34.0996H17.6318Z" fill="#AAAAAA"/>
<path d="M37.9 37.0996C40.4133 37.0996 42.5583 36.221 44.335 34.4639C46.1117 32.7068 47 30.5853 47 28.0996C47 25.6139 46.1117 23.4925 44.335 21.7353C42.5583 19.9782 40.4133 19.0996 37.9 19.0996C36.21 19.0996 34.6608 19.5496 33.2525 20.4496C31.8442 21.3496 30.815 22.571 30.165 24.1139L28.995 26.7496H26.135C24.705 26.7496 23.4917 27.2639 22.495 28.2925C21.4983 29.321 21 30.5425 21 31.9568C21 33.371 21.5092 34.5818 22.5275 35.5889C23.5458 36.596 24.77 37.0996 26.2 37.0996H37.9Z" fill="#CCCCCC"/>
<path d="M28.2998 43.75C28.5331 43.9833 28.7085 44.2412 28.8252 44.5244C28.9418 44.8076 29 45.116 29 45.4492C29 46.1159 28.75 46.6915 28.25 47.1748C27.75 47.6581 27.1666 47.8994 26.5 47.8994C25.8334 47.8994 25.25 47.6581 24.75 47.1748C24.25 46.6915 24 46.1159 24 45.4492C24 45.116 24.0582 44.8076 24.1748 44.5244C24.2915 44.2412 24.4669 43.9833 24.7002 43.75L26.5 42.0996L28.2998 43.75Z" fill="#D4E7F4"/>
<path d="M20.2998 40.75C20.5331 40.9833 20.7085 41.2412 20.8252 41.5244C20.9418 41.8076 21 42.116 21 42.4492C21 43.1159 20.75 43.6915 20.25 44.1748C19.75 44.6581 19.1666 44.8994 18.5 44.8994C17.8334 44.8994 17.25 44.6581 16.75 44.1748C16.25 43.6915 16 43.1159 16 42.4492C16 42.116 16.0582 41.8076 16.1748 41.5244C16.2915 41.2412 16.4669 40.9833 16.7002 40.75L18.5 39.0996L20.2998 40.75Z" fill="#D4E7F4"/>
<path d="M36.2998 40.75C36.5331 40.9833 36.7085 41.2412 36.8252 41.5244C36.9418 41.8076 37 42.116 37 42.4492C37 43.1159 36.75 43.6915 36.25 44.1748C35.75 44.6581 35.1666 44.8994 34.5 44.8994C33.8334 44.8994 33.25 44.6581 32.75 44.1748C32.25 43.6915 32 43.1159 32 42.4492C32 42.116 32.0582 41.8076 32.1748 41.5244C32.2915 41.2412 32.4669 40.9833 32.7002 40.75L34.5 39.0996L36.2998 40.75Z" fill="#D4E7F4"/>
</svg>
